<?xml version="1.0" encoding="UTF-8" standalone="no"?>
<!-- Created with Inkscape (http://www.inkscape.org/) -->

<svg
   width="59.321129mm"
   height="24.067362mm"
   viewBox="0 0 59.321129 24.067362"
   version="1.1"
   id="svg139"
   inkscape:version="1.1 (c68e22c387, 2021-05-23)"
   sodipodi:docname="score2.svg"
   xmlns:inkscape="http://www.inkscape.org/namespaces/inkscape"
   xmlns:sodipodi="http://sodipodi.sourceforge.net/DTD/sodipodi-0.dtd"
   xmlns="http://www.w3.org/2000/svg"
   xmlns:svg="http://www.w3.org/2000/svg">
  <sodipodi:namedview
     id="namedview141"
     pagecolor="#ffffff"
     bordercolor="#666666"
     borderopacity="1.0"
     inkscape:pageshadow="2"
     inkscape:pageopacity="0.0"
     inkscape:pagecheckerboard="0"
     inkscape:document-units="mm"
     showgrid="false"
     inkscape:zoom="0.67081229"
     inkscape:cx="-472.56141"
     inkscape:cy="360.75666"
     inkscape:window-width="3840"
     inkscape:window-height="2306"
     inkscape:window-x="-11"
     inkscape:window-y="-11"
     inkscape:window-maximized="1"
     inkscape:current-layer="layer1"
     fit-margin-top="0"
     fit-margin-left="0"
     fit-margin-right="0"
     fit-margin-bottom="0" />
  <defs
     id="defs136" />
  <g
     inkscape:label="Calque 1"
     inkscape:groupmode="layer"
     id="layer1"
     transform="translate(-58.690032,-53.046)">
    <path
       style="fill:#038141;fill-opacity:1;fill-rule:evenodd;stroke:none;stroke-width:0.0326844;stroke-linecap:round;stroke-linejoin:round;stroke-miterlimit:4;stroke-dasharray:none;stroke-dashoffset:0;stroke-opacity:1"
       d="m 65.555632,55.535727 h 11.86542 V 74.69908 h -11.86542 z"
       id="rect5239"
       inkscape:connector-curvature="0" />
    <path
       style="fill:#e63e11;fill-opacity:1;fill-rule:evenodd;stroke:none;stroke-width:0.0326844;stroke-linecap:round;stroke-linejoin:round;stroke-miterlimit:4;stroke-dasharray:none;stroke-dashoffset:0;stroke-opacity:1"
       d="m 100.11002,55.535727 h 11.86542 V 74.69908 h -11.86542 z"
       id="rect5241"
       inkscape:connector-curvature="0" />
    <path
       style="fill:#038141;fill-opacity:1;fill-rule:evenodd;stroke:none;stroke-width:0.0326844;stroke-linecap:round;stroke-linejoin:round;stroke-miterlimit:4;stroke-dasharray:none;stroke-dashoffset:0;stroke-opacity:1"
       d="m 63.141362,55.535727 h 2.96276 c 2.46603,0 4.45133,1.985292 4.45133,4.45133 v 10.260694 c 0,2.466034 -1.9853,4.451329 -4.45133,4.451329 h -2.96276 c -2.46604,0 -4.45133,-1.985295 -4.45133,-4.451329 V 59.987057 c 0,-2.466038 1.98529,-4.45133 4.45133,-4.45133 z"
       id="rect5243"
       inkscape:connector-curvature="0" />
    <path
       style="fill:#ee8100;fill-opacity:1;fill-rule:evenodd;stroke:none;stroke-width:0.0326844;stroke-linecap:round;stroke-linejoin:round;stroke-miterlimit:4;stroke-dasharray:none;stroke-dashoffset:0;stroke-opacity:1"
       d="M 94.300654,55.535727 H 106.16606 V 74.69908 H 94.300654 Z"
       id="rect5245"
       inkscape:connector-curvature="0" />
    <path
       inkscape:connector-curvature="0"
       id="path5531"
       style="font-style:normal;font-variant:normal;font-weight:800;font-stretch:normal;font-size:medium;line-height:90%;font-family:Raleway;-inkscape-font-specification:'Raleway Ultra-Bold';letter-spacing:0px;word-spacing:0px;fill:#ffffff;fill-opacity:0.446064;stroke:none;stroke-width:0.0326844px;stroke-linecap:butt;stroke-linejoin:miter;stroke-opacity:1"
       d="m 97.196632,69.328996 v -8.687592 h 3.242548 q 1.07677,0 1.88435,0.342611 0.80758,0.342608 1.34595,0.929937 0.55065,0.587333 0.81983,1.382674 0.28143,0.783108 0.28143,1.676339 0,0.991117 -0.30591,1.798698 -0.30589,0.795341 -0.88098,1.370434 -0.56286,0.56286 -1.37044,0.880998 -0.79535,0.305901 -1.77423,0.305901 z m 5.530688,-4.356031 q 0,-0.575096 -0.15907,-1.040063 -0.14683,-0.477207 -0.44049,-0.819818 -0.29367,-0.342608 -0.72193,-0.526147 -0.42826,-0.183541 -0.96665,-0.183541 h -1.235839 v 5.163608 h 1.235839 q 0.55062,0 0.97888,-0.195775 0.42827,-0.195779 0.7097,-0.538386 0.29366,-0.354845 0.44049,-0.819815 0.15907,-0.477207 0.15907,-1.040063 z" />
    <path
       style="fill:#fecb02;fill-opacity:1;fill-rule:evenodd;stroke:none;stroke-width:0.0326844;stroke-linecap:round;stroke-linejoin:round;stroke-miterlimit:4;stroke-dasharray:none;stroke-dashoffset:0;stroke-opacity:1"
       d="M 81.792402,55.535727 H 94.321024 V 74.69908 H 81.792402 Z"
       id="rect5251"
       inkscape:connector-curvature="0" />
    <path
       style="fill:#85bb2f;fill-opacity:1;fill-rule:evenodd;stroke:none;stroke-width:0.0326844;stroke-linecap:round;stroke-linejoin:round;stroke-miterlimit:4;stroke-dasharray:none;stroke-dashoffset:0;stroke-opacity:1"
       d="M 82.400522,55.535727 H 70.535102 V 74.69908 h 11.86542 z"
       id="rect5253"
       inkscape:connector-curvature="0" />
    <path
       inkscape:connector-curvature="0"
       id="path5526"
       style="font-style:normal;font-variant:normal;font-weight:800;font-stretch:normal;font-size:medium;line-height:90%;font-family:Raleway;-inkscape-font-specification:'Raleway Ultra-Bold';letter-spacing:0px;word-spacing:0px;fill:#ffffff;fill-opacity:0.446064;stroke:none;stroke-width:0.0326844px;stroke-linecap:butt;stroke-linejoin:miter;stroke-opacity:1"
       d="m 84.098352,65.213565 q 0,-0.783108 0.29366,-1.553976 0.29367,-0.783108 0.85653,-1.394911 0.56286,-0.611802 1.37043,-0.991117 0.80758,-0.379317 1.835408,-0.379317 1.223605,0 2.116835,0.52615 0.905468,0.52615 1.345965,1.370434 l -1.54174,1.076773 q -0.146832,-0.342608 -0.379317,-0.56286 -0.220249,-0.232482 -0.489444,-0.367081 -0.269191,-0.146832 -0.550619,-0.195775 -0.281432,-0.06118 -0.550623,-0.06118 -0.575095,0 -1.003355,0.232485 -0.42826,0.232485 -0.70969,0.599566 -0.28143,0.367081 -0.41603,0.832051 -0.13459,0.464967 -0.13459,0.942174 0,0.513913 0.15907,0.99112 0.15906,0.477204 0.45273,0.844288 0.3059,0.36708 0.72192,0.587329 0.42827,0.208012 0.954418,0.208012 0.269191,0 0.55062,-0.06118 0.293664,-0.07342 0.550622,-0.208015 0.269192,-0.146833 0.489441,-0.367081 0.220248,-0.232485 0.354847,-0.562856 l 1.639629,0.966646 q -0.195778,0.477207 -0.587329,0.856525 -0.379318,0.379317 -0.880998,0.636272 -0.501676,0.256958 -1.064533,0.391554 -0.562859,0.134596 -1.101245,0.134596 -0.942172,0 -1.737522,-0.379317 -0.7831,-0.391554 -1.35819,-1.027827 -0.56286,-0.636275 -0.881,-1.443854 -0.3059,-0.807577 -0.3059,-1.639628 z" />
    <path
       inkscape:connector-curvature="0"
       id="path5523"
       style="font-style:normal;font-variant:normal;font-weight:800;font-stretch:normal;font-size:medium;line-height:90%;font-family:Raleway;-inkscape-font-specification:'Raleway Ultra-Bold';letter-spacing:0px;word-spacing:0px;fill:#ffffff;fill-opacity:0.446064;stroke:none;stroke-width:0.0326844px;stroke-linecap:butt;stroke-linejoin:miter;stroke-opacity:1"
       d="m 78.814902,67.102034 q 0,0.56286 -0.23248,0.978884 -0.23249,0.416027 -0.63628,0.697455 -0.40378,0.269191 -0.94217,0.416024 -0.53839,0.134599 -1.13795,0.134599 h -4.23367 v -8.687592 h 4.83323 q 0.45274,0 0.81982,0.195779 0.36708,0.195775 0.62404,0.513913 0.25695,0.305901 0.39155,0.709692 0.14683,0.391551 0.14683,0.807578 0,0.624036 -0.31813,1.174659 -0.30591,0.550622 -0.92994,0.832051 0.74639,0.220248 1.17466,0.783108 0.44049,0.562856 0.44049,1.44385 z m -2.04341,-0.403787 q 0,-0.403791 -0.23249,-0.685219 -0.23249,-0.281428 -0.58733,-0.281428 h -2.31261 v 1.896584 h 2.22696 q 0.39155,0 0.64851,-0.256955 0.25696,-0.256958 0.25696,-0.672982 z m -3.13243,-4.343794 v 1.798698 h 1.97 q 0.33037,0 0.58733,-0.220249 0.25696,-0.220252 0.25696,-0.685219 0,-0.428263 -0.23249,-0.660746 -0.22025,-0.232484 -0.53838,-0.232484 z" />
    <path
       inkscape:connector-curvature="0"
       id="path5519"
       style="font-style:normal;font-variant:normal;font-weight:800;font-stretch:normal;font-size:medium;line-height:90%;font-family:Raleway;-inkscape-font-specification:'Raleway Ultra-Bold';letter-spacing:0px;word-spacing:0px;fill:#ffffff;fill-opacity:0.446064;stroke:none;stroke-width:0.0326844px;stroke-linecap:butt;stroke-linejoin:miter;stroke-opacity:1"
       d="m 63.065172,60.641404 h 1.81093 l 3.16914,8.687592 h -2.05566 l -0.67298,-1.945531 h -2.70417 l -0.66074,1.945531 h -2.05566 z m 1.92106,5.359387 -1.0156,-3.071246 -1.04006,3.071246 z" />
    <path
       style="fill:#e63e11;fill-opacity:1;fill-rule:evenodd;stroke:none;stroke-width:0.0326844;stroke-linecap:round;stroke-linejoin:round;stroke-miterlimit:4;stroke-dasharray:none;stroke-dashoffset:0;stroke-opacity:1"
       d="m 110.59707,55.535727 h 2.96274 c 2.46604,0 4.45135,1.985292 4.45135,4.45133 v 10.260694 c 0,2.466034 -1.98531,4.451329 -4.45135,4.451329 h -2.96274 c -2.46604,0 -4.45135,-1.985295 -4.45135,-4.451329 V 59.987057 c 0,-2.466038 1.98531,-4.45133 4.45135,-4.45133 z"
       id="rect5269"
       inkscape:connector-curvature="0" />
    <path
       inkscape:connector-curvature="0"
       id="path5515"
       style="font-style:normal;font-variant:normal;font-weight:800;font-stretch:normal;font-size:medium;line-height:90%;font-family:Raleway;-inkscape-font-specification:'Raleway Ultra-Bold';letter-spacing:0px;word-spacing:0px;fill:#ffffff;fill-opacity:0.446064;stroke:none;stroke-width:0.0326844px;stroke-linecap:butt;stroke-linejoin:miter;stroke-opacity:1"
       d="m 114.49146,67.567004 v 1.761992 h -6.1058 v -8.687592 h 5.99566 v 1.761992 h -3.98895 v 1.688572 h 3.42611 v 1.627395 h -3.42611 v 1.847641 z" />
    <path
       style="fill:#fecb02;fill-opacity:1;fill-rule:evenodd;stroke:none;stroke-width:0.52115;stroke-linecap:round;stroke-linejoin:round;stroke-miterlimit:4;stroke-dasharray:none;stroke-dashoffset:0;stroke-opacity:1"
       d="m 87.414032,53.046 h 1.285365 c 3.552764,0 6.412931,2.860171 6.412931,6.412935 v 11.241493 c 0,3.552764 -2.860167,6.412933 -6.412931,6.412933 h -1.285365 c -3.55276,0 -6.41293,-2.860169 -6.41293,-6.412933 V 59.458935 c 0,-3.552764 2.86017,-6.412935 6.41293,-6.412935 z"
       id="rect5275"
       inkscape:connector-curvature="0" />
    <path
       inkscape:connector-curvature="0"
       id="path5511"
       style="font-style:normal;font-variant:normal;font-weight:800;font-stretch:normal;font-size:medium;line-height:90%;font-family:Raleway;-inkscape-font-specification:'Raleway Ultra-Bold';letter-spacing:0px;word-spacing:0px;fill:#ffffff;fill-opacity:1;stroke:none;stroke-width:0.0326844px;stroke-linecap:butt;stroke-linejoin:miter;stroke-opacity:1"
       d="m 83.106812,65.217515 q 0,-1.032457 0.35515,-2.048788 0.35515,-1.032461 1.03585,-1.839068 0.68071,-0.806611 1.65737,-1.306708 0.97666,-0.500099 2.219691,-0.500099 1.479792,0 2.560052,0.693685 1.09504,0.693686 1.627756,1.806804 l -1.864531,1.419635 q -0.177582,-0.4517 -0.458746,-0.74208 -0.266355,-0.306512 -0.591911,-0.483966 -0.325553,-0.193589 -0.665903,-0.258116 -0.340356,-0.08066 -0.665909,-0.08066 -0.695499,0 -1.213429,0.306511 -0.51793,0.306511 -0.85828,0.79048 -0.34035,0.483966 -0.50313,1.096988 -0.16278,0.613025 -0.16278,1.242177 0,0.677555 0.19238,1.306711 0.19237,0.629159 0.54752,1.113121 0.36995,0.483966 0.87308,0.774346 0.51793,0.274246 1.154235,0.274246 0.325557,0 0.665906,-0.08066 0.355152,-0.09679 0.665909,-0.274246 0.325553,-0.193589 0.591927,-0.483966 0.266355,-0.306514 0.429131,-0.742081 l 1.982918,1.274442 q -0.236777,0.629156 -0.710295,1.129256 -0.458746,0.500096 -1.06546,0.838872 -0.606714,0.338779 -1.287413,0.516231 -0.680705,0.177454 -1.331815,0.177454 -1.139443,0 -2.101303,-0.500096 -0.94707,-0.516234 -1.64257,-1.355106 -0.68071,-0.838873 -1.06545,-1.903602 -0.36995,-1.064722 -0.36995,-2.161714 z" />
  </g>
</svg>
